<svg xmlns="http://www.w3.org/2000/svg" viewBox="0 0 241.1 318.1">
	<path fill="#ef4126"
				d="M241.1 158.9c0-28-16-52.3-39.4-64.2v-.1c-1.9-41.9-30.3-80.3-70.4-94.3-3.2-1.1-6.6.6-7.7 3.7-1.1 3.2.6 6.6 3.7 7.7 33.8 11.8 58.1 43 61.9 77.8 0 0 0 .1-.1.1-6.3-1.8-13-2.8-20-2.8-23.2 0-43.9 11-57 28.1h-.1c-14.2-5.1-28.7-8-42.4-8.5 0 0-.1 0-.1-.1V85.4l-.1-.1-12 6.9v14.7s0 .1-.1.1c-17.1 1.8-32.5 8.7-43.3 19.6-9.1 9.2-13.9 20.3-13.9 32v.8c0 11.7 4.8 22.8 13.9 32 10.8 10.9 26.3 17.8 43.3 19.6 0 0 .1 0 .1.1v13.7c0 3.2 2.3 6.1 5.5 6.4 3.6.3 6.6-2.5 6.6-6.1v-13.6s0-.1.1-.1c13.8-.4 28.3-3.4 42.6-8.5h.1c13.2 17 33.8 27.9 56.9 27.9 6.9 0 13.6-1 20-2.8 0 0 .1 0 .1.1-3.7 34.9-28.1 66.3-61.9 78.1-3.2 1.1-4.8 4.6-3.7 7.7.9 2.5 3.2 4.1 5.7 4.1.7 0 1.3-.1 2-.3 40.3-14.1 68.7-52.6 70.4-94.6v-.1c23.3-11.8 39.3-36.1 39.3-64.1zm-72-59.8c7.2 0 14 1.3 20.4 3.7v.1c-1 17-8.6 33.2-20.3 47.3h-.1c-4.2-4-8.7-7.9-13.6-11.6-9.8-7.4-20.5-13.6-31.6-18.6v-.1c11-12.8 27.1-20.8 45.2-20.8zm-59.9 59.8c0-10.5 2.7-20.4 7.5-29h.1c16.3 7 31.7 17 44 29.1v.1c-12.3 12-27.6 22-43.9 29h-.1c-4.8-8.6-7.6-18.6-7.6-29.2zM22.6 183c-6.9-7-10.5-15.3-10.4-23.9-.1-8.6 3.5-16.9 10.4-23.9 8.4-8.5 21-14.2 34.7-15.9 0 0 .1 0 .1.1v79.4s0 .1-.1.1c-13.7-1.8-26.3-7.4-34.7-15.9zm46.9 16.3v-80.5s0-.1.1-.1c11.7.4 23.8 2.8 35.7 6.8 0 0 .1.1 0 .1-5.2 10-8.2 21.3-8.2 33.3 0 12.1 3 23.5 8.3 33.6v.1c-12 4-24.1 6.4-35.9 6.7 0 .1 0 0 0 0zm54.6-1c-.1-.1-.1-.1 0 0 11.1-5.1 21.7-11.3 31.5-18.7 4.9-3.7 9.4-7.6 13.6-11.6h.1c11.7 14 19.3 30.1 20.3 47v.1c-6.4 2.3-13.2 3.7-20.4 3.7-18.1 0-34.2-8-45.1-20.5zm77.1 11c-2.2-17.6-10.3-34.7-23.5-50.2v-.1c13.3-15.5 21.4-32.7 23.5-50.4 0 0 .1-.1.1 0 16.6 10.7 27.6 29.2 27.6 50.4.1 21.1-11 39.6-27.7 50.3.1 0 0 0 0 0z"/>
</svg>